<?xml version="1.0" encoding="UTF-8" standalone="no"?>
<!DOCTYPE svg PUBLIC "-//W3C//DTD SVG 1.1//EN" "http://www.w3.org/Graphics/SVG/1.1/DTD/svg11.dtd">
<svg xmlns="http://www.w3.org/2000/svg" version="1.1" viewBox="0.00 0.00 852.00 530.00">
<path fill="#000000" d="
  M 789.20 511.89
  Q 440.20 511.85 104.25 511.89
  Q 67.83 511.89 29.73 512.20
  A 1.84 1.84 0.0 0 1 27.88 510.31
  Q 28.20 498.51 28.14 486.50
  Q 27.93 443.18 28.01 400.23
  C 28.01 396.29 28.29 392.32 28.11 388.42
  Q 27.99 385.99 27.98 383.59
  Q 27.88 365.53 28.13 344.25
  C 28.21 338.04 28.02 332.50 28.02 326.62
  Q 28.05 238.82 28.02 150.97
  Q 28.01 146.49 28.17 142.00
  C 28.32 137.99 28.02 134.03 28.02 130.00
  Q 28.02 76.37 28.03 22.75
  Q 28.04 20.76 28.76 18.91
  A 0.82 0.81 -88.2 0 1 29.26 18.43
  C 33.74 16.99 35.57 20.93 39.68 20.11
  C 44.21 19.21 48.32 20.15 52.85 20.15
  Q 434.05 20.15 815.25 20.16
  Q 818.80 20.16 822.29 18.96
  C 824.64 18.15 827.09 19.56 827.22 22.01
  C 828.02 36.96 827.55 52.81 827.56 68.24
  C 827.64 202.20 827.50 336.22 827.60 470.00
  Q 827.61 478.88 827.68 487.75
  Q 827.78 499.62 827.43 511.39
  Q 827.42 511.88 826.93 511.89
  C 814.34 512.27 801.75 511.89 789.20 511.89
  Z
  M 38.72 35.49
  L 44.73 29.31
  A 1.44 1.44 0.0 0 0 44.70 27.28
  L 44.59 27.16
  A 5.78 5.75 44.2 0 0 36.43 27.26
  L 36.43 27.26
  A 5.78 5.75 44.2 0 0 36.57 35.41
  L 36.68 35.52
  A 1.44 1.44 0.0 0 0 38.72 35.49
  Z
  M 820.8698 31.3737
  A 4.65 3.05 20.7 0 0 817.5981 26.8769
  A 4.65 3.05 20.7 0 0 812.1702 28.0863
  A 4.65 3.05 20.7 0 0 815.4419 32.5831
  A 4.65 3.05 20.7 0 0 820.8698 31.3737
  Z
  M 404.18 339.51
  C 401.35 338.45 398.62 337.75 395.93 336.35
  Q 385.98 331.20 380.15 326.47
  Q 372.04 319.88 367.11 313.84
  Q 363.82 309.82 358.64 299.56
  C 356.79 295.90 356.09 292.32 354.36 288.80
  C 352.64 285.29 352.95 281.64 351.78 277.99
  C 350.82 275.03 351.14 272.09 350.70 269.08
  C 350.07 264.70 351.06 260.29 351.09 255.91
  C 351.11 252.87 353.04 250.35 353.17 247.19
  Q 353.34 242.91 355.32 239.77
  C 357.02 237.08 356.88 234.21 358.54 231.56
  C 360.04 229.18 360.43 226.67 362.29 224.39
  Q 366.56 219.15 370.91 213.14
  Q 373.27 209.87 376.21 207.56
  Q 386.68 199.31 388.98 198.18
  Q 394.07 195.69 398.74 193.37
  Q 401.67 191.90 404.25 191.37
  C 408.24 190.56 411.22 188.74 415.56 188.65
  Q 419.91 188.57 424.18 187.97
  A 2.29 2.28 86.0 0 0 426.15 185.69
  Q 425.88 128.70 426.13 72.25
  Q 426.18 61.43 426.62 53.94
  Q 427.28 42.94 426.33 35.94
  C 425.99 33.43 426.27 31.42 427.32 29.17
  A 1.68 1.68 0.0 0 0 425.79 26.79
  L 52.76 26.78
  A 1.52 1.52 0.0 0 0 51.26 28.05
  Q 50.65 31.72 47.69 35.40
  C 44.78 39.00 40.21 40.91 36.05 42.54
  A 1.08 1.08 0.0 0 0 35.37 43.54
  L 35.35 136.23
  A 1.47 1.47 0.0 0 0 36.82 137.70
  Q 97.36 137.78 151.40 137.64
  Q 158.39 137.62 164.44 138.10
  A 1.49 1.49 0.0 0 1 165.81 139.70
  C 165.30 146.42 166.29 153.92 166.24 159.79
  Q 166.06 179.54 166.29 198.00
  Q 166.33 200.71 168.95 200.56
  Q 172.63 200.36 175.51 201.82
  Q 187.76 208.05 195.81 218.31
  C 199.15 222.57 201.44 227.98 203.79 232.85
  Q 206.79 239.09 208.27 246.65
  Q 212.89 270.34 207.01 291.93
  Q 206.43 294.07 205.55 296.08
  C 204.13 299.33 203.12 302.76 201.58 305.90
  Q 193.21 322.96 175.29 331.56
  C 173.61 332.37 171.74 332.74 169.91 332.99
  C 168.22 333.22 166.54 334.35 166.42 336.17
  C 165.68 347.52 166.32 358.79 166.27 369.62
  Q 166.23 379.54 166.26 389.31
  C 166.27 392.75 164.28 396.57 160.19 393.95
  C 155.52 390.97 148.76 393.42 143.47 393.85
  Q 128.34 395.07 118.41 395.09
  Q 87.22 395.18 56.46 395.17
  C 51.75 395.16 46.96 396.00 42.28 395.43
  Q 39.79 395.13 37.00 395.38
  A 0.82 0.81 -73.6 0 0 36.42 395.70
  Q 35.35 397.08 35.36 399.80
  Q 35.39 436.49 35.29 473.22
  Q 35.27 478.23 35.38 484.64
  C 35.42 487.05 36.14 489.53 38.73 490.18
  C 45.07 491.76 49.04 496.04 51.25 502.21
  C 53.35 508.04 57.91 504.45 61.86 504.69
  Q 66.27 504.96 70.26 505.03
  Q 123.01 505.95 175.24 505.64
  Q 184.41 505.59 195.24 505.62
  Q 290.75 505.93 346.75 505.59
  Q 362.38 505.49 377.67 505.77
  C 387.14 505.95 396.59 505.71 406.06 505.88
  C 410.78 505.97 414.78 504.26 419.53 505.64
  Q 421.99 506.36 424.73 505.56
  Q 425.19 505.42 425.32 504.95
  Q 426.00 502.54 426.00 501.00
  Q 425.91 423.50 426.02 346.28
  Q 426.03 344.60 424.38 344.31
  Q 415.75 342.76 407.38 340.56
  Q 406.00 340.20 404.18 339.51
  Z
  M 689.58 391.43
  A 0.48 0.42 -55.0 0 1 689.56 391.24
  L 690.03 334.96
  A 2.32 2.32 0.0 0 0 688.43 332.73
  C 682.96 330.93 677.38 329.29 672.64 325.81
  Q 660.77 317.07 653.74 303.46
  C 651.91 299.92 651.63 296.13 650.18 292.50
  Q 648.72 288.84 648.21 285.05
  Q 647.57 280.29 646.21 275.20
  Q 645.36 272.02 645.38 268.84
  C 645.42 264.45 645.07 260.16 646.48 255.92
  Q 648.09 251.06 648.23 245.89
  Q 648.31 242.59 650.11 238.72
  C 651.28 236.19 651.29 233.45 652.75 231.01
  Q 656.31 225.05 659.65 218.76
  Q 661.05 216.11 663.36 213.85
  C 666.82 210.45 670.80 205.44 675.22 203.70
  C 677.63 202.75 679.08 200.58 681.71 200.73
  C 684.99 200.91 689.96 198.97 689.89 194.94
  Q 689.50 171.31 689.82 145.41
  C 689.85 143.07 689.36 140.87 689.30 138.59
  A 1.23 1.21 70.2 0 1 689.76 137.59
  C 691.66 136.06 694.20 135.55 696.48 136.55
  C 700.10 138.15 703.54 136.51 707.30 136.63
  C 713.85 136.83 720.43 137.48 726.93 137.49
  C 738.41 137.50 749.90 137.03 761.37 137.25
  Q 772.19 137.47 783.22 137.26
  C 786.32 137.21 789.23 137.54 792.32 137.28
  C 796.77 136.92 801.05 137.81 805.45 136.74
  Q 807.02 136.37 808.52 136.73
  C 811.58 137.47 814.70 137.93 817.71 137.20
  C 822.70 136.00 820.93 131.15 820.88 127.75
  Q 820.50 100.99 820.58 65.00
  Q 820.61 53.90 819.70 44.51
  Q 819.55 42.96 818.58 41.71
  Q 818.27 41.31 817.79 41.16
  Q 812.23 39.36 807.87 35.16
  C 806.14 33.49 805.46 31.23 805.11 28.91
  A 2.22 2.22 0.0 0 0 803.06 27.02
  Q 799.28 26.78 795.63 26.78
  Q 615.81 26.78 435.25 26.78
  A 1.53 1.53 0.0 0 0 433.76 28.66
  C 434.11 30.13 434.48 31.56 434.46 33.11
  Q 434.27 54.46 434.74 75.77
  C 435.32 102.10 434.57 128.54 434.22 155.13
  C 434.12 163.19 433.64 170.88 434.02 179.19
  Q 434.11 181.15 433.11 183.56
  A 1.77 1.73 48.2 0 0 433.06 184.75
  C 433.82 187.19 435.70 188.69 438.31 188.71
  C 441.98 188.73 445.79 188.87 449.34 189.83
  Q 461.10 193.03 471.00 199.44
  C 475.14 202.12 479.51 204.92 483.02 208.31
  Q 488.37 213.48 492.03 219.03
  C 493.93 221.93 496.46 224.24 498.00 227.30
  Q 502.07 235.43 504.53 242.89
  C 506.35 248.43 506.50 254.88 506.90 260.67
  Q 507.25 265.88 507.06 271.27
  Q 506.83 277.98 505.79 282.45
  C 504.76 286.94 503.55 291.81 501.61 296.14
  Q 492.67 316.04 475.08 329.01
  C 463.51 337.55 448.34 342.31 433.95 344.15
  Q 431.89 344.41 431.90 347.18
  Q 432.11 419.58 431.89 500.71
  Q 431.89 502.43 432.46 503.74
  Q 433.61 506.33 437.19 505.98
  C 441.61 505.55 445.86 506.03 450.26 505.99
  Q 458.64 505.93 466.60 505.68
  Q 474.05 505.44 482.56 505.48
  Q 637.48 506.06 793.47 505.32
  Q 795.30 505.32 796.73 505.59
  C 798.59 505.95 802.16 506.47 803.35 504.49
  Q 805.40 501.08 807.11 497.95
  C 809.18 494.16 813.32 491.58 817.30 490.24
  C 819.77 489.41 821.53 487.31 821.41 484.71
  C 820.10 456.73 820.40 428.84 820.58 400.73
  Q 820.59 398.91 820.24 396.83
  A 2.01 2.01 0.0 0 0 818.25 395.16
  Q 807.46 395.18 795.75 395.12
  Q 780.46 395.04 774.75 393.89
  Q 768.45 392.63 761.25 392.56
  Q 722.71 392.21 690.75 392.22
  Q 689.78 392.22 689.58 391.43
  Z
  M 36.96 143.70
  Q 35.23 143.69 35.24 145.42
  Q 35.41 167.25 35.40 188.91
  Q 35.40 191.46 37.99 191.57
  C 40.12 191.66 42.75 191.15 45.01 191.16
  Q 75.99 191.27 109.93 191.07
  Q 110.65 191.07 110.65 191.79
  L 110.75 340.50
  Q 110.75 340.95 110.31 340.96
  Q 98.04 341.30 85.64 341.33
  C 80.46 341.35 75.15 341.96 69.98 342.02
  Q 53.57 342.23 38.24 342.10
  A 2.85 2.85 0.0 0 0 35.36 344.95
  L 35.36 387.81
  A 1.37 1.36 -0.2 0 0 36.74 389.17
  Q 82.72 388.93 117.30 389.09
  Q 125.21 389.12 133.17 388.14
  C 141.44 387.13 149.77 386.05 157.87 386.53
  A 1.28 1.28 0.0 0 0 159.22 385.10
  Q 159.09 383.96 159.09 382.75
  Q 159.02 357.46 159.18 331.00
  Q 159.22 324.64 159.19 317.75
  Q 158.97 267.35 159.01 212.72
  C 159.02 207.84 159.37 202.74 159.23 197.81
  Q 159.08 192.50 159.08 187.12
  Q 159.11 168.66 159.30 148.41
  Q 159.31 146.70 158.95 145.13
  A 1.82 1.82 0.0 0 0 157.15 143.72
  Q 97.80 144.34 36.96 143.70
  Z
  M 696.81 149.64
  C 697.01 164.58 696.77 179.09 696.93 193.66
  C 696.96 196.75 696.52 199.92 696.71 203.03
  Q 696.94 206.80 696.94 209.99
  Q 696.88 292.73 696.91 375.48
  C 696.91 378.59 696.19 381.47 696.75 384.61
  A 1.32 1.31 -0.6 0 0 697.86 385.69
  C 701.03 386.14 704.17 385.78 707.36 385.85
  Q 734.71 386.44 766.25 386.25
  Q 777.37 386.19 787.76 388.00
  Q 793.49 389.00 797.76 389.02
  Q 808.00 389.06 816.84 389.07
  A 4.06 4.05 -0.8 0 0 820.90 384.90
  Q 820.41 366.50 820.35 347.25
  Q 820.35 344.87 820.15 342.80
  A 1.78 1.77 87.0 0 0 818.38 341.20
  Q 784.28 341.35 750.00 341.16
  Q 748.24 341.15 746.50 340.93
  A 0.81 0.80 -0.9 0 1 745.81 340.27
  Q 745.39 337.75 745.39 335.25
  Q 745.37 262.90 745.40 189.89
  Q 745.40 189.42 745.85 189.29
  Q 749.20 188.31 752.04 189.13
  Q 754.77 189.93 757.25 189.99
  Q 772.34 190.35 797.61 190.00
  Q 800.54 189.96 803.45 189.52
  C 806.42 189.06 810.85 187.95 813.23 190.22
  C 815.96 192.83 819.20 190.47 821.06 188.31
  A 1.68 1.67 62.6 0 0 821.45 187.06
  Q 820.19 174.22 820.66 160.78
  C 820.84 155.92 820.71 150.76 820.43 145.77
  A 2.12 2.11 88.4 0 0 818.32 143.77
  L 697.85 143.71
  A 1.28 1.27 -2.7 0 0 696.58 145.10
  Q 696.78 147.42 696.81 149.64
  Z
  M 363.10 293.30
  Q 364.67 297.11 366.50 301.28
  C 367.73 304.09 370.43 305.39 371.57 308.15
  Q 372.39 310.16 374.12 311.84
  Q 380.64 318.16 385.20 321.83
  Q 392.78 327.92 403.38 331.97
  Q 405.98 332.96 408.96 334.05
  C 413.27 335.64 417.86 336.00 422.30 336.61
  Q 426.03 337.12 426.02 333.35
  Q 425.96 304.01 425.95 273.65
  Q 425.95 271.30 424.61 269.32
  C 422.99 266.93 422.86 263.56 424.60 261.27
  Q 425.75 259.76 425.79 257.75
  Q 426.06 245.94 426.10 202.79
  C 426.10 200.38 426.78 198.51 427.41 196.27
  A 1.36 1.36 0.0 0 0 426.15 194.55
  C 420.58 194.33 415.44 194.48 409.93 196.24
  Q 394.02 201.33 381.07 212.69
  C 377.94 215.44 375.96 218.49 373.22 221.36
  Q 370.37 224.35 368.12 228.15
  Q 364.01 235.07 361.51 241.05
  C 360.48 243.51 360.22 246.27 359.81 248.91
  C 359.38 251.67 357.76 253.91 357.45 256.57
  Q 355.34 274.58 363.10 293.30
  Z
  M 448.99 196.73
  C 444.23 195.15 438.61 194.28 433.69 194.56
  A 1.36 1.35 77.6 0 0 432.51 196.41
  C 433.03 197.75 433.67 198.77 433.72 200.28
  Q 434.26 215.56 432.27 231.08
  Q 431.36 238.12 432.77 250.91
  C 432.96 252.55 432.83 254.40 432.51 256.05
  C 432.13 258.01 432.91 259.35 433.82 260.93
  C 436.69 265.95 433.27 270.49 432.76 275.57
  Q 432.07 282.38 432.05 287.64
  Q 431.96 308.23 431.91 329.25
  Q 431.91 330.03 431.86 330.80
  C 431.64 334.27 433.51 340.23 438.27 337.26
  C 442.38 334.69 446.64 336.09 450.78 334.12
  Q 455.49 331.89 460.31 329.86
  C 468.03 326.60 474.78 321.09 481.12 315.16
  Q 484.90 311.62 488.27 306.44
  Q 491.61 301.33 493.95 296.29
  Q 495.23 293.53 496.50 290.78
  C 498.51 286.41 498.82 282.07 500.02 277.52
  C 501.76 270.93 501.21 261.93 500.19 255.73
  C 499.02 248.61 498.23 241.95 494.65 235.51
  C 491.29 229.46 488.15 223.54 483.11 218.74
  C 481.67 217.36 480.45 215.28 479.28 214.23
  Q 466.23 202.46 448.99 196.73
  Z
  M 752.77 196.99
  L 752.78 333.21
  A 2.07 2.06 0.1 0 0 754.84 335.27
  Q 787.87 335.28 815.93 335.21
  Q 817.62 335.21 819.49 334.82
  A 1.51 1.51 0.0 0 0 820.70 333.33
  Q 820.57 286.62 820.53 240.25
  Q 820.51 220.71 820.92 205.25
  Q 821.05 200.28 819.11 196.35
  A 2.19 2.19 0.0 0 0 815.59 195.78
  C 813.92 197.45 812.23 197.43 809.90 197.46
  Q 781.72 197.81 761.01 197.09
  Q 760.07 197.05 759.36 196.35
  C 758.06 195.06 756.23 194.29 754.42 194.80
  A 2.28 2.27 82.1 0 0 752.77 196.99
  Z
  M 35.41 213.98
  Q 35.20 274.11 35.41 334.57
  Q 35.41 335.06 35.79 335.39
  C 37.98 337.29 42.34 335.63 45.09 335.58
  Q 72.26 335.07 103.32 335.31
  Q 105.00 335.32 105.00 333.64
  Q 105.00 273.47 105.00 213.40
  C 105.00 209.26 103.94 205.46 104.20 201.21
  Q 104.41 197.58 100.84 197.58
  Q 69.33 197.59 36.51 197.63
  Q 35.13 197.63 35.18 199.01
  Q 35.44 206.31 35.41 213.98
  Z
  M 659.39 299.02
  Q 662.31 306.42 668.41 313.01
  Q 674.07 319.13 679.07 322.00
  Q 682.52 323.98 686.69 325.65
  A 2.08 2.08 0.0 0 0 689.38 324.52
  C 690.50 321.85 689.76 318.43 689.75 315.47
  Q 689.53 256.94 689.89 207.43
  A 1.60 1.60 0.0 0 0 688.08 205.84
  C 685.77 206.14 683.52 206.38 681.47 207.62
  Q 672.54 213.02 671.27 214.52
  Q 668.24 218.09 665.21 221.67
  C 663.61 223.54 662.61 225.68 661.34 227.75
  Q 659.81 230.25 658.79 233.05
  Q 654.33 245.31 652.82 256.21
  Q 651.35 266.91 653.57 279.06
  Q 654.32 283.13 656.98 293.13
  C 657.54 295.26 658.60 297.01 659.39 299.02
  Z
  M 166.09 317.25
  Q 166.10 320.96 165.93 324.95
  A 1.68 1.68 0.0 0 0 167.53 326.70
  Q 170.27 326.82 172.76 325.61
  C 178.82 322.68 183.17 319.59 187.92 314.42
  Q 191.24 310.79 193.32 306.90
  Q 195.85 302.17 198.51 297.00
  Q 199.73 294.64 199.92 292.15
  Q 200.29 287.54 201.99 283.67
  Q 203.09 281.20 203.27 278.04
  Q 203.90 266.98 203.63 259.55
  C 203.37 252.45 200.84 246.78 199.20 240.08
  C 198.52 237.30 197.54 234.19 196.15 231.70
  C 193.97 227.83 192.20 223.31 188.93 220.18
  C 184.79 216.23 181.10 212.28 175.95 209.59
  Q 172.99 208.05 169.69 206.49
  A 2.45 2.44 12.6 0 0 166.20 208.70
  Q 166.37 258.08 166.11 308.50
  Q 166.09 313.12 166.09 317.25
  Z
  M 35.04 498.37
  L 35.40 503.91
  A 2.27 2.26 -1.8 0 0 37.65 506.02
  L 42.63 506.06
  Q 45.13 506.08 44.07 503.81
  Q 42.21 499.84 38.48 496.65
  A 2.09 2.09 0.0 0 0 35.04 498.37
  Z
  M 818.49 496.23
  L 811.33 502.86
  A 0.75 0.75 0.0 0 0 811.29 503.92
  L 811.48 504.13
  A 5.63 5.52 47.2 0 0 819.35 504.51
  L 819.51 504.36
  A 5.63 5.52 47.2 0 0 819.74 496.48
  L 819.55 496.27
  A 0.75 0.75 0.0 0 0 818.49 496.23
  Z"
/>
<path fill="#000000" d="
  M 723.98 260.84
  Q 728.30 256.21 733.06 261.10
  C 736.78 264.92 734.29 269.43 730.69 271.85
  Q 728.86 273.09 726.37 272.50
  Q 722.92 271.69 722.77 267.22
  C 722.69 265.02 722.35 262.59 723.98 260.84
  Z"
/>
<rect fill="#000000" x="-6.00" y="-6.25" transform="translate(132.56,265.67) rotate(44.3)" width="12.00" height="12.50" rx="4.72"/>
</svg>
